<?xml version="1.0" encoding="UTF-8"?>
<!DOCTYPE svg PUBLIC "-//W3C//DTD SVG 1.1//EN" "http://www.w3.org/Graphics/SVG/1.1/DTD/svg11.dtd">
<!-- Creator: CorelDRAW X7 -->
<svg xmlns="http://www.w3.org/2000/svg" xml:space="preserve" width="2.83571in" height="0.950433in" version="1.1" style="shape-rendering:geometricPrecision; text-rendering:geometricPrecision; image-rendering:optimizeQuality; fill-rule:evenodd; clip-rule:evenodd"
viewBox="0 0 3080 1032"
 xmlns:xlink="http://www.w3.org/1999/xlink">
 <defs>
  <style type="text/css">
   <![CDATA[
    .str0 {stroke:lime;stroke-width:3.25848}
    .fil3 {fill:black}
    .fil0 {fill:#04A51E}
    .fil1 {fill:#54C3E9}
    .fil2 {fill:#A5048B}
   ]]>
  </style>
 </defs>
 <g id="Layer_x0020_1">
  <metadata id="CorelCorpID_0Corel-Layer"/>
  <polygon class="fil0" points="231,466 25,466 0,503 206,503 "/>
  <polygon class="fil0" points="456,89 250,89 225,127 431,127 "/>
  <polygon class="fil0" points="2276,466 2069,466 2044,503 2251,503 "/>
  <polygon class="fil0" points="2501,89 2294,89 2269,127 2476,127 "/>
  <rect class="fil1" x="1612" y="615" width="46.1276" height="39.9613"/>
  <path class="fil0 str0" d="M915 683l-129 0 0 -28 43 0 0 -40 -42 0 1 -413 90 0 25 -37 -115 0 0 -38 77 0 25 -38 -102 0 0 -75 -138 0 0 0 -39 0 0 0 -40 0 -50 75 40 0 -24 38 0 0 -40 0 -25 38 40 0 -25 37 -40 0 -224 339 -112 0 -25 38 112 0 -68 102 0 11 -75 0 -25 37 100 0 0 91 439 1 0 97 -161 0 -25 37 186 0 -1 75 135 1 0 0 168 0 25 -38 -110 0 0 -38 65 0 25 -37 -90 0 0 -96 50 0 0 0 40 0 0 0 38 0 0 -17 37 0 25 -38 -62 0 1 -38 77 0 25 -37 -102 0 0 -9zm-346 -1l-170 0 70 -103 0 0 25 -38 76 -112 -1 253z"/>
  <path class="fil0" d="M2959 683l-128 0 0 -28 42 0 0 -40 -42 0 1 -413 91 0 25 -37 -116 0 0 -38 77 0 25 -38 -102 0 1 -75 -139 0 0 0 -39 0 0 0 -40 0 -49 75 40 0 -6 9 -19 29 0 0 -40 0 -25 38 40 0 -25 37 -40 0 -224 339 -111 0 -25 38 111 0 -67 102 0 11 -75 0 -25 37 100 0 -1 91 439 1 0 97 -160 0 -25 37 185 0 0 75 134 1 0 0 169 0 25 -38 -111 0 0 -38 66 0 24 -37 -90 0 0 -96 50 0 0 0 40 0 0 0 39 0 0 -17 37 0 24 -38 -61 0 0 -38 77 0 25 -37 -102 0 0 -9zm-345 -1l-171 0 70 -103 25 -38 76 -112 0 253z"/>
  <path class="fil0" d="M2000 729l25 -37 -87 0 1 -264 80 0 25 -38 -105 0 0 -64c0,-44 -9,-86 -24,-124l39 0 25 -37 -83 0c-7,-14 -15,-26 -25,-38l99 0 25 -38 -158 0c-12,-12 -26,-23 -41,-33 -51,-35 -114,-56 -181,-56 -7,0 -14,0 -20,1 -6,-1 -12,-1 -18,-1 -9,0 -18,0 -26,1 -8,-1 -15,-1 -23,-1 -45,0 -88,9 -127,25 -36,16 -69,37 -98,64l-92 0 -25 38 83 0c-4,5 -8,10 -11,16 -34,49 -54,109 -56,172l-71 0 -25 38 96 0 -1 113 -168 0 -24 37 192 0 0 38 -81 0 -25 38 106 0 0 113 -99 0 -25 37 126 0c3,32 11,62 23,89 16,38 38,71 65,100l-45 0 -25 37 113 0c3,3 6,5 9,7 52,35 115,56 182,56l0 0c9,0 17,0 26,-1 7,1 15,1 23,1l0 0c6,0 13,0 20,-1 6,1 12,1 18,1l0 0c44,0 87,-9 126,-25 59,-25 109,-66 144,-118 15,-21 27,-45 36,-70l75 0 25 -38 -89 0c3,-12 5,-25 7,-38l64 0 0 0zm-292 -36c0,25 -5,49 -14,71 -14,32 -38,60 -67,80 -17,12 -37,20 -58,25 -9,-2 -19,-5 -28,-9 -32,-14 -60,-37 -80,-66 -19,-29 -30,-64 -30,-102l0 -113 46 0 26 -38 -72 0 1 -216c0,-26 5,-49 14,-71 8,-19 20,-37 34,-52l65 0 24 -37 -41 0c13,-7 27,-13 42,-17 10,3 19,6 28,10 33,14 61,37 80,66 20,29 31,64 31,102l-1 367z"/>
  <path class="fil2" d="M915 692l0 -9 -129 0 0 -28 43 0 0 -40 -42 0 1 -413 90 0 25 -37 -115 0 0 -38 77 0 25 -38 -102 0 0 -75 -138 0 0 0 -39 0 0 0 -50 75 39 0 -25 38 -38 0 0 0 -25 38 79 0 -24 37 -80 0 -174 264 31 0 -25 37 -31 0 -25 38 -115 0 -25 38 115 0 -68 102 0 11 -78 0 -25 37 103 0 0 91 439 1 0 20 39 0 0 40 -39 0 0 37 0 37 -1 75 95 1 0 0 168 0 25 -38 -110 0 0 -38 65 0 25 -37 -90 0 0 -96 0 -1 50 1 40 0 0 0 38 0 0 -17 37 0 25 -38 -62 0 1 -38 77 0 25 -37 -102 0zm-266 -37l-40 0 0 27 -40 0 -170 0 70 -103 0 0 25 -38 76 -112 40 -59 0 245 39 0 0 40 0 0z"/>
  <path class="fil2" d="M2959 692l0 -9 -128 0 0 -28 42 0 0 -40 -42 0 1 -413 91 0 25 -37 -116 0 0 -38 77 0 25 -38 -102 0 1 -75 -139 0 0 0 -39 0 0 0 -49 75 0 0 38 0 -5 9 -20 29 -38 0 0 0 -25 38 80 0 -25 37 -80 0 -174 264 31 0 -25 37 -31 0 -25 38 -115 0 -25 38 115 0 -67 102 0 11 -79 0 -25 37 104 0 -1 91 439 1 0 20 40 0 0 40 -40 0 0 37 0 37 0 75 95 1 0 0 168 0 25 -38 -111 0 0 -38 66 0 24 -37 -90 0 0 -96 0 -1 50 1 40 0 0 0 39 0 0 -17 37 0 25 -38 -62 0 0 -38 77 0 25 -37 -102 0 0 0zm-265 -37l-40 0 0 27 -40 0 -171 0 70 -103 25 -38 76 -112 40 -59 0 245 40 0 0 40 0 0z"/>
  <path class="fil2" d="M2019 428l25 -37 -105 -1 0 -64c0,-44 -9,-86 -24,-124l39 0 25 -37 -83 0c-7,-14 -15,-26 -25,-38l99 0 25 -38 -158 0c-12,-12 -26,-23 -41,-33 -51,-35 -114,-56 -181,-56 -7,0 -14,0 -20,1 -6,-1 -12,-1 -18,-1 -9,0 -18,0 -26,1 -36,3 -70,11 -101,24 -37,16 -70,37 -98,64l52 0c-12,12 -24,24 -34,38l-52 0c-4,5 -8,10 -11,16 -34,49 -54,109 -56,172l-120 0 -25 38 144 0 0 188 -94 0 -25 38 119 0 -1 113 0 0 -110 0 -25 37 138 0c3,32 11,62 23,89 15,38 38,71 65,100l93 0c13,13 28,26 43,37l-93 0c3,3 6,5 9,7 46,31 100,51 159,55 7,1 15,1 23,1l0 0c6,0 13,0 20,-1 6,1 12,1 18,1l0 0c45,0 87,-9 126,-25 59,-25 109,-66 144,-118 15,-21 27,-45 36,-70l75 0 25 -38 -89 0c3,-12 5,-25 7,-38l64 0 25 -37 -87 0 1 -264 80 0 0 0zm-425 446c-9,-1 -17,-3 -25,-5 -9,-2 -19,-5 -28,-9 -32,-14 -60,-37 -80,-66 -19,-29 -30,-64 -30,-102l0 -113 46 0 26 -38 -72 0 1 -216c0,-26 5,-49 14,-71 8,-19 20,-37 34,-52l65 0 24 -37 -41 0c13,-7 27,-13 42,-17 8,-2 16,-3 25,-4 18,2 36,7 52,14 32,14 60,37 80,66 17,26 28,57 30,90l-39 0 0 40 40 0 -1 339c0,25 -6,49 -15,71 -14,32 -37,60 -66,80 -24,16 -52,27 -82,30z"/>
  <path class="fil3" d="M876 692l0 -9 -128 0 1 -329 -39 0 0 -40 39 0 0 -187 75 0 25 -38 -100 0 1 -75 -100 0 -39 0 0 0 -50 75 39 0 -25 38 -38 0 0 0 -25 38 79 0 -24 37 -80 0 -174 264 31 0 -25 37 -31 0 -25 38 -115 0 -25 38 115 0 -68 102 0 11 -78 0 -25 37 103 0 0 91 439 1 0 20 39 0 0 40 -39 0 0 37 0 37 -1 75 95 1 0 0 128 0 25 -38 -109 0 0 -38 64 0 25 -37 -89 0 0 -97 0 0 39 0 50 1 40 0 0 0 0 -17 35 0 3 -6 22 -32 -60 0 0 -38 75 0 25 -37 -100 0zm-267 -37l0 27 0 1 -40 -1 -209 0 70 -103 -87 0 23 -34 2 -4 87 0 115 -169 40 -59 0 57 0 245 39 0 0 40 -40 0z"/>
  <path class="fil3" d="M2920 692l0 -9 -128 0 1 -329 -39 0 0 -40 39 0 1 -187 74 0 25 -38 -99 0 0 -75 -100 0 -39 0 0 0 -49 75 0 0 38 0 -5 9 -20 29 -38 0 0 0 -25 38 80 0 -25 37 -80 0 -174 264 31 0 -25 37 -31 0 -25 38 -115 0 -25 38 115 0 -67 102 0 11 -79 0 -25 37 104 0 -1 91 439 1 0 20 40 0 0 40 -40 0 0 37 0 37 0 75 95 1 0 0 127 0 25 -38 -109 0 0 -38 64 0 25 -37 -89 0 1 -97 0 0 38 0 50 1 40 0 0 0 0 -17 35 0 4 -6 21 -32 -60 0 0 -38 76 0 25 -37 -101 0zm-266 -37l0 27 0 1 -40 -1 -210 0 70 -103 -86 0 22 -34 3 -4 87 0 114 -169 41 -59 -1 57 0 245 40 0 0 40 -40 0z"/>
  <path class="fil3" d="M1898 729l62 0 25 -37 -85 0 1 -264 -23 0 0 -38 23 0 0 -64c0,-44 -9,-86 -24,-124l-25 0c-6,-13 -12,-25 -20,-37l26 0c-7,-14 -15,-26 -25,-38l96 0 25 -38 -152 0 0 2c-14,-13 -28,-24 -44,-35 -47,-32 -103,-52 -163,-55 -6,-1 -12,-1 -18,-1 -9,0 -18,0 -26,1 -36,3 -70,11 -101,24 -37,16 -70,37 -98,64l52 0c-12,12 -24,24 -34,38l-52 0c-4,5 -8,10 -11,16 -34,49 -54,109 -56,172l-120 0 -25 38 144 0 0 188 -94 0 -25 38 119 0 -1 113 0 0 -110 0 -25 37 138 0c3,32 11,62 23,89 15,38 38,71 65,100l93 0c13,13 28,26 43,37l-93 0c3,3 6,5 9,7 46,31 100,51 159,55 7,1 15,1 23,1l0 0c6,0 13,0 20,-1 37,-2 73,-10 106,-24 59,-25 109,-66 144,-118 15,-21 27,-45 36,-70l72 0 25 -38 -86 0c3,-12 5,-25 7,-38zm-395 131c-32,-14 -60,-37 -80,-66 -19,-29 -30,-64 -30,-102l0 -113 -14 0 0 -38 14 0 1 -216c0,-26 5,-49 14,-71 14,-33 37,-60 66,-80 5,-3 10,-6 16,-9l0 0 0 0c19,-10 39,-17 61,-20 8,-1 17,-2 25,-2 6,0 13,1 19,1 18,2 36,7 52,14 32,14 60,37 80,66 17,26 28,57 30,90l-39 0 0 40 40 0 -1 339c0,25 -6,49 -15,71 -14,32 -37,60 -66,80 -24,16 -52,27 -82,30 -7,0 -13,1 -20,1l0 0c-8,0 -16,-1 -24,-2 -16,-2 -32,-7 -47,-13zm289 -205l0 -40 46 0 0 40 -46 0z"/>
  <polygon class="fil2" points="805,428 1011,428 1036,390 829,390 "/>
  <polygon class="fil2" points="2849,428 3055,428 3080,390 2874,390 "/>
  <polygon class="fil3" points="328,315 122,315 97,353 303,353 "/>
  <polygon class="fil3" points="2373,315 2166,315 2141,353 2348,353 "/>
 </g>
</svg>
